<svg width="12" height="13" viewBox="0 0 12 13" fill="none" xmlns="http://www.w3.org/2000/svg">
<rect y="0.5" width="12" height="12" rx="6" fill="#DC2626"/>
<path d="M6.54969 6.50004L8.88597 4.16365C9.03801 4.01167 9.03801 3.76595 8.88597 3.61398C8.734 3.46201 8.48828 3.46201 8.33631 3.61398L5.99996 5.95038L3.66368 3.61398C3.51164 3.46201 3.266 3.46201 3.11403 3.61398C2.96199 3.76595 2.96199 4.01167 3.11403 4.16365L5.45031 6.50004L3.11403 8.83644C2.96199 8.98842 2.96199 9.23414 3.11403 9.38611C3.18977 9.46192 3.28935 9.5 3.38886 9.5C3.48837 9.5 3.58788 9.46192 3.66368 9.38611L5.99996 7.04971L8.33631 9.38611C8.41212 9.46192 8.51163 9.5 8.61114 9.5C8.71065 9.5 8.81016 9.46192 8.88597 9.38611C9.03801 9.23414 9.03801 8.98842 8.88597 8.83644L6.54969 6.50004Z" fill="white"/>
</svg>
